<svg xmlns="http://www.w3.org/2000/svg" viewBox="0 0 64 64" role="img" aria-labelledby="favicon-title">
  <title id="favicon-title">RF</title>
  <rect width="64" height="64" rx="12" fill="#121b1b"/>
  <rect x="1" y="1" width="62" height="62" rx="11" fill="none" stroke="#30413f" stroke-width="2"/>
  <path d="M15 46V18h14.5c6.7 0 11.1 3.7 11.1 9.7 0 4.2-2.2 7.3-6 8.7l7 9.6H32l-5.8-8.2H24V46h-9Zm9-15.2h4.6c2.2 0 3.4-1 3.4-2.9s-1.2-2.9-3.4-2.9H24v5.8Zm20 15.2V18h17v7.1h-8.2v4.3h7.3v7.1h-7.3V46H44Z" fill="#f2f5f1"/>
  <circle cx="54" cy="10" r="4" fill="#e7aa68"/>
</svg>
